<svg xmlns="http://www.w3.org/2000/svg" width="98.67" height="90.396"><path d="M90.219 26.285h-4.154v-2.672l2.592-2.855a8.02 8.02 0 002.087-5.4v-6.77A8.6 8.6 0 0082.158.003h-3.949a8.6 8.6 0 00-8.585 8.585v6.77a8.021 8.021 0 002.087 5.4l2.589 2.855v2.671h-4.152A8.464 8.464 0 0061.9 32.92a9.348 9.348 0 00-1.3-.092h-4.867V29.56l2.967-3.269a8.847 8.847 0 002.3-5.958v-7.627a9.493 9.493 0 00-9.482-9.482 1.484 1.484 0 100 2.967 6.523 6.523 0 016.516 6.515v7.627a5.886 5.886 0 01-1.531 3.964l-3.057 3.367a1.482 1.482 0 00-.682 1.248v5.4a1.483 1.483 0 001.483 1.483H60.6a6.371 6.371 0 016.364 6.364v9.308H31.63v-9.309a6.375 6.375 0 014.163-5.971 1.463 1.463 0 00.325-.11 6.347 6.347 0 011.875-.282h6.35a1.483 1.483 0 001.483-1.483v-5.4a1.482 1.482 0 00-.682-1.248l-3.057-3.367a5.886 5.886 0 01-1.53-3.964v-7.627a6.523 6.523 0 016.516-6.515 1.484 1.484 0 100-2.967 9.493 9.493 0 00-9.482 9.482v7.627a8.848 8.848 0 002.3 5.959l2.968 3.269v3.268h-4.866a9.334 9.334 0 00-1.222.083 8.463 8.463 0 00-8.25-6.626h-4.154v-2.673l2.592-2.855a8.02 8.02 0 002.087-5.4v-6.77A8.6 8.6 0 0020.46.003h-3.949a8.6 8.6 0 00-8.585 8.585v6.77a8.02 8.02 0 002.087 5.4l2.592 2.855v2.671H8.451A8.46 8.46 0 000 34.733v9.581a1.483 1.483 0 001.483 1.483h23.079a1.484 1.484 0 000-2.967H2.967v-8.097a5.49 5.49 0 015.484-5.484h5.638a1.483 1.483 0 001.483-1.483v-4.793a1.482 1.482 0 00-.663-1.236l-2.7-2.973a5.059 5.059 0 01-1.316-3.408v-6.77a5.625 5.625 0 015.619-5.619h3.948a5.625 5.625 0 015.619 5.619v6.77a5.059 5.059 0 01-1.316 3.408l-2.7 2.973a1.482 1.482 0 00-.663 1.236v4.795a1.483 1.483 0 001.483 1.483h5.638a5.491 5.491 0 015.4 4.515 9.34 9.34 0 00-5.254 8.391v10.792a1.483 1.483 0 001.48 1.484h38.3a1.483 1.483 0 001.483-1.483V42.158a9.339 9.339 0 00-5.184-8.355 5.492 5.492 0 015.4-4.551h5.638a1.483 1.483 0 001.483-1.483v-4.796a1.482 1.482 0 00-.663-1.236l-2.7-2.973a5.059 5.059 0 01-1.316-3.408v-6.77a5.625 5.625 0 015.619-5.619h3.949a5.625 5.625 0 015.619 5.619v6.77a5.059 5.059 0 01-1.316 3.408l-2.7 2.973a1.482 1.482 0 00-.659 1.236v4.795a1.483 1.483 0 001.483 1.483h5.638a5.49 5.49 0 015.479 5.482v8.1H74.363a1.484 1.484 0 000 2.967h22.824a1.483 1.483 0 001.483-1.483v-9.584a8.46 8.46 0 00-8.451-8.448zM64.253 73.232a1.483 1.483 0 00-1.17-1.006l-8.1-1.33-3.769-7.3a1.483 1.483 0 00-2.636 0l-3.769 7.3-8.1 1.33a1.484 1.484 0 00-.815 2.507l5.766 5.84-1.239 8.117a1.483 1.483 0 002.132 1.549l7.337-3.687 7.337 3.687a1.483 1.483 0 002.132-1.549l-1.239-8.117 5.773-5.839a1.482 1.482 0 00.36-1.502zm-8.763 5.784a1.484 1.484 0 00-.412 1.267l.918 6.015-5.438-2.732a1.484 1.484 0 00-1.332 0l-5.438 2.732.918-6.015a1.483 1.483 0 00-.412-1.267l-4.279-4.327 6-.986a1.484 1.484 0 001.077-.783l2.793-5.407 2.793 5.407a1.484 1.484 0 001.077.783l6 .986zm41.232-16.691a1.483 1.483 0 00-1.17-1.006l-8.1-1.33-3.769-7.3a1.483 1.483 0 00-2.636 0l-3.769 7.3-8.1 1.33a1.484 1.484 0 00-.815 2.507l5.774 5.839-1.239 8.117a1.483 1.483 0 002.132 1.549l7.337-3.687 7.337 3.687a1.483 1.483 0 002.132-1.549l-1.244-8.119 5.774-5.839a1.482 1.482 0 00.356-1.499zm-8.763 5.784a1.484 1.484 0 00-.412 1.267l.918 6.016-5.438-2.732a1.483 1.483 0 00-1.332 0l-5.438 2.732.918-6.016a1.484 1.484 0 00-.412-1.267l-4.279-4.327 6-.986a1.483 1.483 0 001.077-.783l2.793-5.407 2.793 5.407a1.484 1.484 0 001.077.783l6 .986zm-56.182-5.784a1.484 1.484 0 00-1.171-1.006l-8.1-1.33-3.769-7.3a1.483 1.483 0 00-2.636 0l-3.769 7.3-8.1 1.33a1.484 1.484 0 00-.815 2.507l5.774 5.839-1.239 8.117a1.483 1.483 0 002.132 1.549l7.337-3.687 7.337 3.687a1.483 1.483 0 002.132-1.549l-1.238-8.119 5.773-5.839a1.483 1.483 0 00.352-1.499zm-8.763 5.784a1.484 1.484 0 00-.412 1.267l.918 6.016-5.432-2.729a1.483 1.483 0 00-1.332 0l-5.438 2.732.918-6.016a1.483 1.483 0 00-.412-1.267l-4.278-4.327 6-.986a1.485 1.485 0 001.078-.783l2.793-5.407 2.793 5.407a1.485 1.485 0 001.078.783l6.005.986z" fill="#7a41fb"/></svg>