<svg xmlns="http://www.w3.org/2000/svg" width="103.963" height="105.404"><defs><style>.a{fill:#0092d3}</style></defs><path class="a" d="M50.334 33.566a1.285 1.285 0 00-1.818-.021l-10.955 10.7-5.681-5.547a1.287 1.287 0 10-1.8 1.839l6.579 6.423a1.285 1.285 0 001.8 0l11.857-11.576a1.285 1.285 0 00.018-1.818z"/><path class="a" d="M98.835 62.984c0-1.2-.015-4.852-.043-5.3a27.612 27.612 0 00-27.357-26.1 32.046 32.046 0 00-3.588-8.171l4.806-5.8a1.285 1.285 0 00-.075-1.723l-7.956-8.059a1.285 1.285 0 00-1.735-.087l-5.812 4.813a32.711 32.711 0 00-9.108-3.846l-.732-7.549A1.285 1.285 0 0045.961 0H34.535a1.285 1.285 0 00-1.279 1.162l-.728 7.546a31.979 31.979 0 00-9.118 3.839l-5.8-4.806a1.285 1.285 0 00-1.729.081L7.822 15.88a1.285 1.285 0 00-.081 1.73l4.813 5.812a32.708 32.708 0 00-3.846 9.109l-7.547.728a1.285 1.285 0 00-1.162 1.279v11.425a1.285 1.285 0 001.162 1.279l7.546.725a31.962 31.962 0 003.839 9.118l-4.806 5.8a1.285 1.285 0 00.081 1.729l8.058 8.058a1.285 1.285 0 001.729.081l5.812-4.813a32.717 32.717 0 009.115 3.851l.728 7.547a1.285 1.285 0 001.272 1.162h11.426a1.285 1.285 0 001.28-1.162l.728-7.546q.74-.184 1.475-.4a38.757 38.757 0 012.121 7.245c.78 8.385.225 21 .047 24.489a2.175 2.175 0 002.172 2.284h22.558a1.285 1.285 0 001.285-1.285v-8.589a2.489 2.489 0 012.38-1.748h.01c4.569.019 7.361.035 7.661.045a7.076 7.076 0 005.212-2.042 7.306 7.306 0 002.137-5.225v-7.234h6.41a2.54 2.54 0 001.712-.63 2.458 2.458 0 00.651-2.7zm-52.33 6.507a1.285 1.285 0 00-1.007 1.133l-.7 7.3h-9.09l-.7-7.3A1.285 1.285 0 0034 69.491a30.166 30.166 0 01-9.978-4.21 1.285 1.285 0 00-1.517.09L16.87 70.03l-6.4-6.4L15.127 58a1.285 1.285 0 00.079-1.533 29.283 29.283 0 01-4.2-9.962A1.285 1.285 0 009.875 45.5l-7.3-.7v-9.1l7.3-.7a1.285 1.285 0 001.133-1.007 30.164 30.164 0 014.211-9.98 1.285 1.285 0 00-.09-1.517l-4.66-5.626 6.4-6.4 5.627 4.659a1.285 1.285 0 001.533.079 29.292 29.292 0 019.962-4.2 1.285 1.285 0 001.008-1.133l.7-7.3h9.089l.7 7.3a1.285 1.285 0 001.007 1.133 30.169 30.169 0 019.979 4.21 1.285 1.285 0 001.517-.09l5.621-4.655 6.323 6.392L65.27 22.5a1.285 1.285 0 00-.079 1.533 29.235 29.235 0 013.6 7.661 25.238 25.238 0 00-6.145 1.343 23.526 23.526 0 10-16.332 29.945 25.975 25.975 0 002.185 6c-.664.192-1.327.365-1.994.509zm-.639-9.049a20.957 20.957 0 1114.395-26.425 25.393 25.393 0 00-11.063 10.219 25.78 25.78 0 00-3.332 16.206zm47.876 16.319a1.285 1.285 0 00-1.285 1.285v8.644a4.568 4.568 0 01-4.7 4.566c-.336-.01-2.937-.026-7.731-.046h-.021a5.056 5.056 0 00-4.912 3.83 1.281 1.281 0 00-.039.314v7.48H54.201c.2-4.043.7-16.086-.076-24.441-.288-3.093-3.064-9.974-3.181-10.265a1.186 1.186 0 00-.052-.112 23.165 23.165 0 01.529-22.486 22.674 22.674 0 0118.858-11.36q.323-.012.648-.015a25.044 25.044 0 0125.3 23.678c.02.332.034 3.484.039 5.394a1.286 1.286 0 00.084.455l4.994 13.08z"/></svg>