<svg xmlns="http://www.w3.org/2000/svg" width="112.955" height="84.924"><defs><style>.a{fill:#17baa7}</style></defs><path class="a" d="M8.576 18.902h17.45a1.655 1.655 0 100-3.309H8.576a1.655 1.655 0 100 3.309zm16.852 7.966h-6.893a1.655 1.655 0 100 3.309h6.893a1.655 1.655 0 100-3.309zM1.655 38.342h16.88a1.655 1.655 0 100-3.309H1.655a1.655 1.655 0 100 3.309zm26.026 29.335a1.655 1.655 0 00-1.655-1.655H8.576a1.655 1.655 0 100 3.309h17.45a1.654 1.654 0 001.655-1.654zm-2.253-12.93h-6.893a1.655 1.655 0 000 3.309h6.893a1.655 1.655 0 000-3.309zm-5.239-6.51a1.655 1.655 0 00-1.655-1.655H1.655a1.655 1.655 0 000 3.309h16.88a1.655 1.655 0 001.654-1.654zm50.305-25.668a1.654 1.654 0 001.655-1.655v-2.526a1.655 1.655 0 10-3.309 0v2.526a1.654 1.654 0 001.654 1.655zm18.19 1.7a1.655 1.655 0 00-2.34 0l-1.786 1.786a1.655 1.655 0 102.34 2.34l1.786-1.786a1.655 1.655 0 000-2.34zm3.357 16.539a1.655 1.655 0 100 3.309h2.525a1.655 1.655 0 100-3.309zM86.9 56.528a1.655 1.655 0 10-2.34 2.34l1.786 1.786a1.655 1.655 0 002.34-2.34zM68.839 64.01v2.525a1.655 1.655 0 003.309 0V64.01a1.655 1.655 0 00-3.309 0zm-14.752-7.482l-1.786 1.786a1.655 1.655 0 002.34 2.34l1.786-1.786a1.655 1.655 0 00-2.34-2.34zm-7.667-15.72a1.655 1.655 0 000 3.309h2.526a1.655 1.655 0 100-3.309zm10.007-14.753l-1.786-1.786a1.655 1.655 0 00-2.34 2.34l1.786 1.786a1.655 1.655 0 102.34-2.34zm22.964 16.407a1.654 1.654 0 00-1.655-1.655h-5.588V28.523a1.655 1.655 0 10-3.309 0v13.939a1.654 1.654 0 001.655 1.655h7.243a1.654 1.654 0 001.654-1.655z"/><path class="a" d="M101.868 42.189a1.655 1.655 0 001.551-1.752 32.966 32.966 0 10-.3 6.961 1.655 1.655 0 00-3.273-.491 29.7 29.7 0 11.274-6.269 1.656 1.656 0 001.752 1.551z"/><path class="a" d="M70.493 0a42.446 42.446 0 00-16.771 3.465H24.529a1.655 1.655 0 100 3.309h22.964a42.417 42.417 0 00-8.485 7.193 1.655 1.655 0 002.453 2.221 39.074 39.074 0 11-3.88 5.053 1.656 1.656 0 00-2.78-1.8 42.451 42.451 0 0012.7 58.7H24.529a1.655 1.655 0 000 3.309H53.7A42.461 42.461 0 1070.493 0z"/></svg>